<svg width="53" height="53" viewBox="0 0 53 53" fill="none" xmlns="http://www.w3.org/2000/svg">
<path fill-rule="evenodd" clip-rule="evenodd" d="M18.5897 7.17708C19.208 5.87417 20.5418 4.96875 22.0833 4.96875H30.9166C32.458 4.96875 33.7896 5.87417 34.4102 7.17708C35.9185 7.19033 37.0955 7.25879 38.1467 7.66954C39.4015 8.16039 40.4928 8.99457 41.2958 10.0766C42.1062 11.1675 42.4883 12.5654 43.0094 14.4889L44.648 20.5L45.2663 22.3572L45.3193 22.4234C47.309 24.9718 46.3617 28.7613 44.4669 36.3381C43.2612 41.1589 42.6605 43.5682 40.8629 44.9727C39.0653 46.375 36.581 46.375 31.6122 46.375H21.3876C16.4189 46.375 13.9345 46.375 12.1369 44.9727C10.3393 43.5682 9.73646 41.1589 8.53292 36.3381C6.63817 28.7613 5.69079 24.9718 7.6805 22.4234L7.7335 22.3572L8.35184 20.5L9.99042 14.4889C10.5138 12.5654 10.8958 11.1653 11.7041 10.0744C12.5073 8.99317 13.5986 8.15979 14.8532 7.66954C15.9043 7.25879 17.0792 7.18812 18.5897 7.17708ZM18.5941 10.494C17.1322 10.5095 16.5448 10.5647 16.0589 10.7546C15.3831 11.0189 14.7953 11.4681 14.3629 12.0509C13.9743 12.5742 13.7446 13.3052 13.1042 15.6615L11.8454 20.2747C14.0979 19.875 17.1763 19.875 21.3854 19.875H31.6122C35.8235 19.875 38.8997 19.875 41.1522 20.2725L39.8957 15.6593C39.2553 13.303 39.0256 12.572 38.6369 12.0487C38.2045 11.4659 37.6167 11.0167 36.9409 10.7524C36.4551 10.5625 35.8677 10.5072 34.4058 10.4918C34.0922 11.1517 33.598 11.7093 32.9804 12.0998C32.3628 12.4902 31.6472 12.6976 30.9166 12.6979H22.0833C21.3528 12.6978 20.6374 12.4908 20.0199 12.1007C19.4023 11.7106 18.908 11.1535 18.5941 10.494Z" fill="#00C75B"/>
</svg>
