<svg width="35" height="35" viewBox="0 0 35 35" fill="none" xmlns="http://www.w3.org/2000/svg">
<path d="M5.08184 20.3802C4.05547 15.5871 3.54085 13.1899 4.82882 11.5989C6.11536 10.0064 8.56693 10.0064 13.4687 10.0064H20.8391C25.7422 10.0064 28.191 10.0064 29.4789 11.5989C30.7655 13.1913 30.2523 15.5871 29.2259 20.3802L28.6127 23.2392C27.9165 26.4884 27.5691 28.1123 26.3898 29.0658C25.2105 30.0193 23.5494 30.0193 20.2273 30.0193H14.0805C10.7583 30.0193 9.09727 30.0193 7.91938 29.0658C6.73862 28.1123 6.38982 26.4884 5.69509 23.2392L5.08184 20.3802Z" stroke="white" stroke-width="2.14423"/>
<path d="M4.28845 15.7244H30.0193M14.2949 20.0128H20.0128M25.7308 12.8654L21.4423 4.28847M8.57692 12.8654L12.8654 4.28847" stroke="white" stroke-width="2.14423" stroke-linecap="round" stroke-linejoin="round"/>
</svg>
